<?xml version="1.0" encoding="utf-8"?><svg xmlns="http://www.w3.org/2000/svg" xmlns:xlink="http://www.w3.org/1999/xlink" width="1536" height="760" preserveAspectRatio="xMidYMid" viewBox="0 0 1536 760" style="z-index:1;margin-right:-2px;display:block;background-repeat-y:initial;background-repeat-x:initial;background-color:rgb(255, 255, 255);animation-play-state:paused" ><g transform="translate(768,380) scale(1,1) translate(-768,-380)" style="transform:matrix(1, 0, 0, 1, 0, 0);animation-play-state:paused" ><defs style="animation-play-state:paused" ><path id="path-w0y71jxrzh-1" d="M-35 -35L35 -35L35 35L-35 35Z" fill="none" stroke="inherit" stroke-width="4.333333333333334" transform="scale(0.3)" style="transform:matrix(0.3, 0, 0, 0.3, 0, 0);animation-play-state:paused" ></path>

  
<path id="path-w0y71jxrzh-2" d="M0 -37A37 37 0 0 1 0 37A37 37 0 0 1 0 -37" fill="none" stroke="inherit" stroke-width="4.333333333333334" transform="scale(0.3)" style="transform:matrix(0.3, 0, 0, 0.3, 0, 0);animation-play-state:paused" ></path>

  
<path id="path-w0y71jxrzh-3" d="M0 -34.641L40 34.641L-40 34.641Z" fill="none" stroke="inherit" stroke-width="4.333333333333334" transform="scale(0.3)" style="transform:matrix(0.3, 0, 0, 0.3, 0, 0);animation-play-state:paused" ></path></defs>
<path id="path0" d="M 63.51800649418216 400.472831650091
c 0 38.07210848998213 -9.315515907123284 10.93560563010125 -20.251121537224535 10.93560563010125
S 23.01576341973309 438.5449401400731 23.01576341973309 400.472831650091
s 9.315515907123284 -10.93560563010125 20.251121537224535 -10.93560563010125
S 63.51800649418216 362.4007231601089 63.51800649418216 400.472831650091
z" fill="none" stroke="none" style="animation-play-state:paused" ></path>


<use xlink:href="#path-w0y71jxrzh-3" x="0" y="0" stroke="#bbddff" transform="translate(56.054264068603516 419.26458740234375)" style="animation-play-state:paused" ></use>
<path id="path1" d="M 140.06888683830726 288.91000892507003
c 0 53.37331051286569 -13.05942704038203 15.330631743057166 -28.390058783439194 15.330631743057166
S 83.28876927142889 342.28331943793575 83.28876927142889 288.91000892507003
s 13.05942704038203 -15.330631743057166 28.390058783439194 -15.330631743057166
S 140.06888683830726 235.53669841220434 140.06888683830726 288.91000892507003
z" fill="none" stroke="none" style="animation-play-state:paused" ></path>


<use xlink:href="#path-w0y71jxrzh-3" x="0" y="0" stroke="#aabbcc" transform="translate(111.48649597167969 304.24267578125)" style="animation-play-state:paused" ></use>
<path id="path2" d="M 249.92619855419835 29.036900290722834
c 0 43.62183881319005 -10.673428645780543 12.529677105916292 -23.203105751696835 12.529677105916292
S 203.5199870508047 72.6587391039129 203.5199870508047 29.036900290722834
s 10.673428645780543 -12.529677105916292 23.203105751696835 -12.529677105916292
S 249.92619855419835 -14.584938522467219 249.92619855419835 29.036900290722834
z" fill="none" stroke="none" style="animation-play-state:paused" ></path>


<use xlink:href="#path-w0y71jxrzh-2" x="0" y="0" stroke="#aabbcc" transform="translate(249.8724822998047 34.04847717285156)" style="animation-play-state:paused" ></use>
<path id="path3" d="M 328.0303663908055 380.01643487781706
c 0 63.282349734696524 -15.483979190404467 18.176845136561766 -33.660824326966235 18.176845136561766
S 260.70871773687304 443.2987846125136 260.70871773687304 380.01643487781706
s 15.483979190404467 -18.176845136561766 33.660824326966235 -18.176845136561766
S 328.0303663908055 316.7340851431205 328.0303663908055 380.01643487781706
z" fill="none" stroke="none" style="animation-play-state:paused" ></path>


<use xlink:href="#path-w0y71jxrzh-3" x="0" y="0" stroke="#aabbcc" transform="translate(327.6166076660156 395.3312072753906)" style="animation-play-state:paused" ></use>
<path id="path4" d="M 421.46553064319204 155.81139766039638
c 0 54.60057637782859 -13.359715496702739 15.683144278738 -29.04285977544074 15.683144278738
S 363.3798110923106 210.41197403822497 363.3798110923106 155.81139766039638
s 13.359715496702739 -15.683144278738 29.04285977544074 -15.683144278738
S 421.46553064319204 101.21082128256779 421.46553064319204 155.81139766039638
z" fill="none" stroke="none" style="animation-play-state:paused" ></path>


<use xlink:href="#path-w0y71jxrzh-3" x="0" y="0" stroke="#ddeeff" transform="translate(407.3310241699219 179.9171600341797)" style="animation-play-state:paused" ></use>
<path id="path5" d="M 472.42222656327925 406.1776903048211
c 0 52.97352127955033 -12.96160627052827 15.215798665402755 -28.177404935931026 15.215798665402755
S 416.06741669141724 459.1512115843714 416.06741669141724 406.1776903048211
s 12.96160627052827 -15.215798665402755 28.177404935931026 -15.215798665402755
S 472.42222656327925 353.2041690252708 472.42222656327925 406.1776903048211
z" fill="none" stroke="none" style="animation-play-state:paused" ></path>


<use xlink:href="#path-w0y71jxrzh-1" x="0" y="0" stroke="#bbddff" transform="translate(472.15411376953125 417.6809387207031)" style="animation-play-state:paused" ></use>
<path id="path6" d="M 568.880434511436 471.4436600106969
c 0 53.30911579416419 -13.043719821976344 15.31219283449397 -28.355912656470316 15.31219283449397
S 512.1686091984953 524.752775804861 512.1686091984953 471.4436600106969
s 13.043719821976344 -15.31219283449397 28.355912656470316 -15.31219283449397
S 568.880434511436 418.1345442165327 568.880434511436 471.4436600106969
z" fill="none" stroke="none" style="animation-play-state:paused" ></path>


<use xlink:href="#path-w0y71jxrzh-2" x="0" y="0" stroke="#bbddff" transform="translate(539.8182373046875 486.7825012207031)" style="animation-play-state:paused" ></use>
<path id="path7" d="M 647.5743242190993 297.4476592362352
c 0 49.60803136248207 -12.138135333373272 14.249115391351234 -26.387250724724506 14.249115391351234
S 594.7998227696503 347.05569059871726 594.7998227696503 297.4476592362352
s 12.138135333373272 -14.249115391351234 26.387250724724506 -14.249115391351234
S 647.5743242190993 247.83962787375313 647.5743242190993 297.4476592362352
z" fill="none" stroke="none" style="animation-play-state:paused" ></path>


<use xlink:href="#path-w0y71jxrzh-1" x="0" y="0" stroke="#bbddff" transform="translate(601.0345458984375 323.8227233886719)" style="animation-play-state:paused" ></use>
<path id="path8" d="M 726.8039540050398 627.2873772603257
c 0 53.26926111068664 -13.033968144104175 15.300745212644035 -28.33471335674821 15.300745212644035
S 670.1345272915433 680.5566383710124 670.1345272915433 627.2873772603257
s 13.033968144104175 -15.300745212644035 28.33471335674821 -15.300745212644035
S 726.8039540050398 574.018116149639 726.8039540050398 627.2873772603257
z" fill="none" stroke="none" style="animation-play-state:paused" ></path>


<use xlink:href="#path-w0y71jxrzh-1" x="0" y="0" stroke="#ddeeff" transform="translate(719.9912109375 655.5809326171875)" style="animation-play-state:paused" ></use>
<path id="path9" d="M 854.0368693071734 530.3722837207949
c 0 65.07662931762411 -15.923005045801641 18.692223314636713 -34.61522836043835 18.692223314636713
S 784.8064125862968 595.448913038419 784.8064125862968 530.3722837207949
s 15.923005045801641 -18.692223314636713 34.61522836043835 -18.692223314636713
S 854.0368693071734 465.29565440317083 854.0368693071734 530.3722837207949
z" fill="none" stroke="none" style="animation-play-state:paused" ></path>


<use xlink:href="#path-w0y71jxrzh-3" x="0" y="0" stroke="#ddeeff" transform="translate(817.4556274414062 549.23046875)" style="animation-play-state:paused" ></use>
<path id="path10" d="M 924.7668543223296 192.40022786268716
c 0 24.0225968465091 -5.877869441167119 6.900107604848359 -12.77797704601548 6.900107604848359
S 899.2109002302985 216.42282470919625 899.2109002302985 192.40022786268716
s 5.877869441167119 -6.900107604848359 12.77797704601548 -6.900107604848359
S 924.7668543223296 168.37763101617807 924.7668543223296 192.40022786268716
z" fill="none" stroke="none" style="animation-play-state:paused" ></path>


<use xlink:href="#path-w0y71jxrzh-3" x="0" y="0" stroke="#bbddff" transform="translate(899.2765502929688 196.37582397460938)" style="animation-play-state:paused" ></use>
<path id="path11" d="M 1004.058054410888 727.345806323712
c 0 35.23576540206968 -8.621517066463857 10.120911338892356 -18.742428405356215 10.120911338892356
S 966.5731976001755 762.5815717257817 966.5731976001755 727.345806323712
s 8.621517066463857 -10.120911338892356 18.742428405356215 -10.120911338892356
S 1004.058054410888 692.1100409216424 1004.058054410888 727.345806323712
z" fill="none" stroke="none" style="animation-play-state:paused" ></path>


<use xlink:href="#path-w0y71jxrzh-1" x="0" y="0" stroke="#ddeeff" transform="translate(1002.0672607421875 744.8408813476562)" style="animation-play-state:paused" ></use>
<path id="path12" d="M 1063.224628537986 575.0536419635815
c 0 34.809400846917114 -8.517193824245675 9.99844492411449 -18.515638748360168 9.99844492411449
S 1026.193351041266 609.8630428104987 1026.193351041266 575.0536419635815
s 8.517193824245675 -9.99844492411449 18.515638748360168 -9.99844492411449
S 1063.224628537986 540.2442411166644 1063.224628537986 575.0536419635815
z" fill="none" stroke="none" style="animation-play-state:paused" ></path>


<use xlink:href="#path-w0y71jxrzh-1" x="0" y="0" stroke="#bbddff" transform="translate(1034.6632080078125 590.8895263671875)" style="animation-play-state:paused" ></use>
<path id="path13" d="M 1150.9688926912856 131.2917690232768
c 0 33.555902719544804 -8.210486835633303 9.638397589656487 -17.84888442528979 9.638397589656487
S 1115.2711238407062 164.8476717428216 1115.2711238407062 131.2917690232768
s 8.210486835633303 -9.638397589656487 17.84888442528979 -9.638397589656487
S 1150.9688926912856 97.735866303732 1150.9688926912856 131.2917690232768
z" fill="none" stroke="none" style="animation-play-state:paused" ></path>


<use xlink:href="#path-w0y71jxrzh-3" x="0" y="0" stroke="#bbddff" transform="translate(1134.756103515625 141.14926147460938)" style="animation-play-state:paused" ></use>
<path id="path14" d="M 1274.1443966429124 441.2896434703125
c 0 27.562395080296184 -6.743990285604385 7.91685816136167 -14.660848446966055 7.91685816136167
S 1244.82269974898 468.8520385506087 1244.82269974898 441.2896434703125
s 6.743990285604385 -7.91685816136167 14.660848446966055 -7.91685816136167
S 1274.1443966429124 413.7272483900163 1274.1443966429124 441.2896434703125
z" fill="none" stroke="none" style="animation-play-state:paused" ></path>


<use xlink:href="#path-w0y71jxrzh-1" x="0" y="0" stroke="#aabbcc" transform="translate(1265.35546875 452.0429382324219)" style="animation-play-state:paused" ></use>
<path id="path15" d="M 1336.3740696578254 527.9693024327452
c 0 62.46283347063913 -15.283459253454254 17.941452167098475 -33.22491142055273 17.941452167098475
S 1269.9242468167201 590.4321359033843 1269.9242468167201 527.9693024327452
s 15.283459253454254 -17.941452167098475 33.22491142055273 -17.941452167098475
S 1336.3740696578254 465.50646896210606 1336.3740696578254 527.9693024327452
z" fill="none" stroke="none" style="animation-play-state:paused" ></path>


<use xlink:href="#path-w0y71jxrzh-1" x="0" y="0" stroke="#bbddff" transform="translate(1324.2921142578125 558.9214477539062)" style="animation-play-state:paused" ></use>
<path id="path16" d="M 1412.4212830101903 493.26201623217344
c 0 61.81194889347984 -15.124200261170596 17.754495958765485 -32.87869621993608 17.754495958765485
S 1346.6638905703182 555.0739651256533 1346.6638905703182 493.26201623217344
s 15.124200261170596 -17.754495958765485 32.87869621993608 -17.754495958765485
S 1412.4212830101903 431.4500673386936 1412.4212830101903 493.26201623217344
z" fill="none" stroke="none" style="animation-play-state:paused" ></path>


<use xlink:href="#path-w0y71jxrzh-2" x="0" y="0" stroke="#ddeeff" transform="translate(1410.9991455078125 517.3624267578125)" style="animation-play-state:paused" ></use>
<path id="path17" d="M 1537.9066358851062 520.145242764778
c 0 53.065828926210756 -12.984192184072844 15.2423125639116 -28.226504747984443 15.2423125639116
S 1481.4536263891375 573.2110716909888 1481.4536263891375 520.145242764778
s 12.984192184072844 -15.2423125639116 28.226504747984443 -15.2423125639116
S 1537.9066358851062 467.07941383856723 1537.9066358851062 520.145242764778
z" fill="none" stroke="none" style="animation-play-state:paused" ></path>


<use xlink:href="#path-w0y71jxrzh-3" x="0" y="0" stroke="#bbddff" transform="translate(1513.5872802734375 536.1570434570312)" style="animation-play-state:paused" ></use></g></svg>